<svg xmlns="http://www.w3.org/2000/svg" viewBox="0 0 100 100" width="64" height="64"><path fill="#AAAAAA" d="M34.449,72.826L23.851,41.064l26.853-21.056l27.455,21.056  l-10.2,32.344L34.449,72.826z"/><path fill="#AAAAAA" d="M2.878,34.373L3.77,66.281l17.192,23.602l12.24-15.092  l-11.28-34.152L2.878,34.373z"/><path fill="#AAAAAA" d="M67.664,75.568l-33.525-0.201L23.358,90.52l27.099,8.449  l27.684-8.83L67.664,75.568z"/><path fill="#AAAAAA" d="M4.499,33.375L21.4,10.646l27.974-9.616v16.901L22.35,39.216  L4.499,33.375z"/><path fill="#AAAAAA" d="M52.702,1.047l27.682,9.325l16.153,23.325l-17.028,5.967  l-27.1-21.423L52.702,1.047z"/><path fill="#AAAAAA" d="M69.944,74.227l10.415-31.761l16.762-5.829l-0.076,28.558  L80.436,88.506L69.944,74.227z"/></svg>